<?xml version="1.0" standalone="no"?>
<!DOCTYPE svg PUBLIC "-//W3C//DTD SVG 20010904//EN"
 "http://www.w3.org/TR/2001/REC-SVG-20010904/DTD/svg10.dtd">
<svg version="1.0" xmlns="http://www.w3.org/2000/svg"
 width="219.000000pt" height="46.000000pt" viewBox="0 0 219.000000 46.000000"
 preserveAspectRatio="xMidYMid meet">

<g transform="translate(0.000000,46.000000) scale(0.100000,-0.100000)"
fill="#000000" stroke="none">
<path d="M37 423 c-11 -11 -8 -193 3 -193 6 0 10 28 10 65 0 36 3 65 8 65 4 0
20 -23 35 -50 16 -28 31 -50 35 -50 5 0 21 23 37 50 16 28 33 50 37 50 4 0 8
-29 8 -65 0 -37 4 -65 10 -65 13 0 14 187 1 194 -5 3 -26 -23 -47 -59 -21 -36
-42 -65 -46 -65 -4 0 -23 29 -43 65 -39 70 -38 68 -48 58z"/>
<path d="M318 424 c-12 -11 -10 -194 2 -194 6 0 10 35 10 85 0 96 5 102 65 91
26 -5 36 -13 41 -32 8 -30 -11 -54 -42 -54 -29 0 -32 -16 -4 -23 11 -3 28 -19
37 -36 10 -17 21 -31 26 -31 12 0 8 24 -9 48 -15 21 -15 25 0 41 20 21 21 61
2 86 -14 19 -114 34 -128 19z"/>
<path d="M535 335 c-25 -54 -43 -100 -41 -102 3 -3 19 5 35 17 17 11 46 24 66
27 30 5 36 2 46 -21 12 -26 29 -35 29 -16 0 13 -70 171 -82 184 -4 5 -28 -35
-53 -89z m85 -26 c0 -4 -12 -10 -27 -13 -16 -4 -36 -9 -46 -12 -16 -5 -15 1 9
47 l26 53 19 -34 c10 -19 18 -38 19 -41z"/>
<path d="M705 419 c-9 -25 -1 -179 10 -179 6 0 12 30 15 67 l5 68 59 -73 c33
-39 64 -72 68 -72 4 0 8 45 8 101 0 64 -4 98 -10 94 -5 -3 -10 -39 -10 -78
l-1 -72 -27 30 c-15 17 -46 53 -69 80 -32 39 -43 46 -48 34z"/>
<path d="M904 417 c-3 -8 -4 -52 -2 -98 l3 -84 44 -3 c60 -4 96 13 116 55 23
48 4 101 -45 125 -42 21 -108 24 -116 5z m111 -23 c8 -4 22 -19 30 -35 27 -52
-16 -109 -82 -109 l-33 0 0 75 0 75 34 0 c19 0 42 -3 51 -6z"/>
<path d="M1646 336 c-26 -54 -45 -100 -42 -103 3 -3 19 5 35 17 17 11 46 24
66 27 30 5 36 2 46 -21 13 -27 29 -35 28 -13 0 6 -19 53 -43 102 l-44 90 -46
-99z m84 -27 c0 -4 -12 -10 -27 -13 -16 -4 -36 -9 -46 -12 -16 -5 -15 1 9 47
l26 53 19 -34 c10 -19 18 -38 19 -41z"/>
<path d="M1815 418 c-10 -24 -1 -178 10 -178 13 0 19 170 6 183 -7 7 -12 5
-16 -5z"/>
<path d="M2058 419 c-12 -6 -18 -22 -18 -43 0 -29 5 -35 33 -45 88 -33 103
-54 56 -80 -23 -13 -29 -12 -59 2 -36 19 -50 16 -31 -7 29 -34 110 -26 131 14
16 30 -10 66 -52 75 -41 9 -58 22 -58 46 0 24 43 35 76 20 37 -16 42 -13 15 9
-25 22 -66 25 -93 9z"/>
<path d="M260 325 c0 -57 4 -95 10 -95 6 0 10 38 10 95 0 57 -4 95 -10 95 -6
0 -10 -38 -10 -95z"/>
<path d="M1130 335 c-52 -113 -52 -122 -2 -85 15 11 44 23 65 27 33 5 38 3 47
-21 8 -22 30 -37 30 -21 0 15 -80 180 -89 183 -6 2 -29 -35 -51 -83z m71 7
l16 -39 -41 -11 c-22 -6 -42 -9 -44 -7 -4 4 41 95 47 95 4 0 13 -17 22 -38z"/>
<path d="M1400 325 c0 -114 18 -129 22 -19 l3 77 63 -77 c35 -42 68 -76 73
-76 5 0 9 43 9 95 0 57 -4 95 -10 95 -6 0 -10 -30 -10 -70 0 -38 -3 -70 -7
-69 -5 0 -33 31 -63 69 -30 38 -61 69 -67 69 -10 1 -13 -24 -13 -94z"/>
<path d="M1870 325 l0 -95 65 0 c37 0 65 4 65 10 0 6 -25 10 -55 10 l-55 0 0
85 c0 50 -4 85 -10 85 -6 0 -10 -38 -10 -95z"/>
<path d="M850 113 c0 -6 20 -33 45 -59 l45 -49 -2 60 -1 60 -6 -49 -6 -49 -37
48 c-21 27 -38 44 -38 38z"/>
<path d="M1084 71 c1 -39 5 -56 16 -58 10 -3 11 -2 3 4 -6 5 -14 31 -16 58
l-4 50 1 -54z"/>
<path d="M1385 90 c-3 -5 1 -10 10 -10 9 0 13 5 10 10 -3 6 -8 10 -10 10 -2 0
-7 -4 -10 -10z"/>
<path d="M1006 76 c3 -9 -2 -16 -13 -18 -15 -3 -15 -5 5 -10 17 -5 22 -2 22
12 0 11 -4 22 -10 25 -5 3 -7 0 -4 -9z"/>
<path d="M1053 50 c0 -25 2 -35 4 -22 2 12 2 32 0 45 -2 12 -4 2 -4 -23z"/>
<path d="M1125 80 c-8 -13 3 -30 18 -30 8 0 7 3 -2 9 -7 5 -10 14 -7 20 4 6 5
11 2 11 -3 0 -8 -4 -11 -10z"/>
<path d="M1286 76 c3 -9 -2 -16 -13 -18 -15 -3 -15 -5 5 -10 17 -5 22 -2 22
12 0 11 -4 22 -10 25 -5 3 -7 0 -4 -9z"/>
<path d="M1331 45 c2 -33 3 -35 6 -10 2 17 11 35 20 42 13 10 13 12 -6 10 -18
-1 -21 -7 -20 -42z"/>
<path d="M1166 36 c4 -9 -3 -16 -18 -19 -22 -5 -22 -5 2 -4 24 2 44 37 21 37
-6 0 -8 -6 -5 -14z"/>
<path d="M968 18 c5 -5 16 -8 23 -6 8 3 3 7 -10 11 -17 4 -21 3 -13 -5z"/>
<path d="M1248 18 c5 -5 16 -8 23 -6 8 3 3 7 -10 11 -17 4 -21 3 -13 -5z"/>
<path d="M1390 20 c0 -6 7 -10 15 -10 8 0 15 2 15 4 0 2 -7 6 -15 10 -8 3 -15
1 -15 -4z"/>
</g>
</svg>
